<svg xmlns="http://www.w3.org/2000/svg" width="24" height="24"><path d="M13.172 4.895H11.31v.903h-.87v-.903H8.565c-.677 0-1.226.537-1.226 1.2V8.91l2.129 1.948c.139.128.247.277.332.438h3.373c.677 0 1.226-.537 1.226-1.2V6.095c0-.663-.55-1.2-1.227-1.2zm-1.761 3.479v1.763h-1.089V8.374h-.77l1.32-1.527 1.313 1.533s-.007-.006-.774-.006zM.222 2.529C.222 1.166 1.352.06 2.745.06 4.14.06 5.27 1.166 5.27 2.53c0 1.363-1.13 2.469-2.524 2.469-1.393 0-2.523-1.106-2.523-2.469zm8.722 10.056a.83.83 0 0 1-.601.255.832.832 0 0 1-.563-.217l-3.388-3.1v4.752c0 .507-.244.954-.619 1.25l1.838 7.388a.805.805 0 0 1-.606.973.82.82 0 0 1-.995-.592L2.955 19.05l-.594 4.063a.821.821 0 0 1-.932.683.808.808 0 0 1-.698-.911l1.067-7.296c-.422-.292-.7-.77-.7-1.315V8.02c0-.89.738-1.61 1.647-1.61.21 0 .41.041.596.112a.824.824 0 0 1 .4.199l5.164 4.725c.332.304.35.814.04 1.14zM21.14 4.998c-1.393 0-2.523-1.106-2.523-2.469 0-1.363 1.13-2.469 2.523-2.469 1.394 0 2.524 1.106 2.524 2.469 0 1.363-1.13 2.469-2.524 2.469zm-6.16 6.448l5.165-4.725a.824.824 0 0 1 .4-.2c.185-.07.385-.112.595-.112.91 0 1.647.722 1.647 1.611v6.255c0 .544-.278 1.023-.7 1.315l1.068 7.296a.808.808 0 0 1-.699.911.821.821 0 0 1-.931-.683l-.595-4.063-1.055 4.243a.82.82 0 0 1-.994.592.805.805 0 0 1-.606-.973l1.838-7.388a1.589 1.589 0 0 1-.62-1.25V9.523l-3.388 3.1a.831.831 0 0 1-.562.217.83.83 0 0 1-.601-.255.793.793 0 0 1 .038-1.139z"/><path d="M4.431 23.762a.941.941 0 0 1-.295-.273c-.043-.079-.306-1.06-.584-2.181-.546-2.2-.57-2.292-.604-2.26-.012.013-.147.89-.3 1.95-.152 1.061-.308 2.04-.346 2.174-.196.692-1.145.795-1.454.158-.111-.23-.1-.332.436-3.997l.55-3.763-.167-.129c-.092-.07-.247-.284-.344-.474l-.176-.345v-3.428c.001-2.058.028-3.523.068-3.665.092-.323.511-.786.846-.935.366-.162 1.005-.162 1.363.001.16.073 1.265 1.031 2.685 2.33 3.142 2.871 2.991 2.715 2.991 3.1 0 .263-.034.343-.231.535-.184.18-.284.226-.493.224a1.03 1.03 0 0 1-.405-.083c-.08-.045-.897-.769-1.816-1.61-.92-.84-1.704-1.539-1.743-1.551-.047-.016-.07.8-.071 2.526-.002 2.79-.003 2.795-.424 3.282l-.174.202.911 3.651c.502 2.008.912 3.774.912 3.923 0 .33-.147.551-.449.675-.302.123-.428.116-.686-.037zM1.985 4.848c-.41-.131-.706-.327-1.068-.705C.432 3.636.304 3.303.3 2.544c-.002-.584.015-.667.222-1.078C.956.603 1.748.126 2.745.126c1.004 0 1.786.471 2.224 1.342.205.407.223.495.222 1.076 0 .554-.023.68-.185 1.002-.235.468-.725.949-1.2 1.176-.446.214-1.35.276-1.82.126zM9.712 11.101c-.056-.088-.6-.618-1.21-1.176L7.394 8.91l.02-1.636c.02-1.592.025-1.642.18-1.854.299-.41.552-.48 1.741-.48h1.057v.864h.951v-.865H12.4c1.19 0 1.443.07 1.742.481.159.217.16.225.178 2.597.022 2.688.02 2.704-.483 3.03l-.273.177-1.875.019-1.874.02zm1.7-1.803v-.894l.404-.02.404-.02-.671-.78-.672-.78-.365.414c-.201.228-.513.587-.693.797l-.328.382h.833v1.796H11.41zM20.23 4.782c-.99-.408-1.56-1.238-1.557-2.271.003-.94.53-1.743 1.426-2.175.404-.195.513-.218 1.03-.217.508 0 .636.027 1.032.21a2.43 2.43 0 0 1 1.236 1.209c.185.385.212.512.209.974-.008.968-.465 1.71-1.332 2.164-.38.198-.5.227-1.04.246-.527.019-.667 0-1.005-.14z" fill="#666"/><path d="M18.786 23.814c-.264-.143-.44-.345-.478-.548-.026-.14.255-1.385.883-3.909.506-2.036.92-3.745.92-3.796 0-.052-.065-.151-.145-.22-.08-.07-.21-.262-.29-.427-.135-.283-.144-.434-.176-2.86l-.034-2.56-1.597 1.465c-2.017 1.848-1.991 1.827-2.3 1.827-.538 0-.938-.5-.78-.973.077-.228 5.231-5.008 5.595-5.187.13-.065.439-.13.685-.144.38-.023.5 0 .794.145.379.188.66.5.803.89.12.328.138 6.71.02 7.168-.045.176-.187.419-.353.603l-.277.308.526 3.6c.29 1.979.525 3.713.523 3.854-.004.358-.357.708-.713.708-.34 0-.61-.151-.735-.412-.057-.12-.236-1.14-.398-2.264-.162-1.125-.31-2.045-.33-2.044-.02 0-.261.92-.537 2.045-.583 2.376-.655 2.574-.99 2.71-.28.116-.43.12-.616.02zM4.352 23.65c-.177-.158-.246-.312-.397-.89-.101-.383-.205-.706-.231-.717-.026-.011-.032-.078-.013-.15.02-.071.004-.13-.034-.13-.039 0-.054-.06-.034-.133.02-.077.002-.133-.045-.133-.044 0-.062-.028-.04-.063.036-.056-.311-1.545-.419-1.798a.394.394 0 0 1-.03-.178.126.126 0 0 0-.054-.119c-.036-.022-.05-.081-.03-.131.019-.05.002-.11-.038-.135-.04-.024-.077.01-.083.076a5.514 5.514 0 0 1-.036.287 129.586 129.586 0 0 1-.6 3.74c-.152.59-1.037.717-1.348.193-.13-.22-.131-.238-.011-1.164.067-.517.13-1.045.14-1.173.009-.128.038-.286.065-.35a.456.456 0 0 0 .013-.25c-.019-.072-.005-.15.031-.171.037-.022.06-.12.052-.216a.736.736 0 0 1 .037-.294.442.442 0 0 0 .016-.25c-.019-.072-.005-.15.031-.171.036-.022.06-.12.052-.216a.736.736 0 0 1 .037-.294.442.442 0 0 0 .016-.25c-.019-.072-.005-.15.031-.171.036-.022.058-.12.047-.216a.502.502 0 0 1 .034-.261.44.44 0 0 0 .039-.233.628.628 0 0 1 .037-.266.44.44 0 0 0 .016-.249c-.02-.072-.005-.15.031-.172.036-.022.06-.119.052-.216a.736.736 0 0 1 .037-.294.442.442 0 0 0 .016-.249c-.02-.072-.007-.149.028-.17.133-.08.037-.525-.161-.751a2.114 2.114 0 0 1-.27-.383c-.041-.087-.095-.158-.12-.158-.025 0-.05-.052-.053-.116-.022-.36-.008-4.962.016-5 .015-.024.034-.548.041-1.162l.014-1.118.338-.356c.186-.195.442-.389.57-.43.278-.09.953-.095 1.184-.008.192.071.99.745 2.324 1.96.515.468.935.838.935.822 0-.016.235.206.522.495.286.288.531.514.544.501.038-.037 1.289 1.24 1.376 1.404.114.218.024.572-.2.782-.22.207-.643.243-.887.076-.078-.054-.833-.721-1.676-1.484-1.42-1.283-1.735-1.544-1.87-1.55-.029-.001-.054.708-.057 1.577-.011 3.216-.067 3.71-.478 4.214-.133.162-.136.2-.057.548.047.206.109.375.137.375.028 0 .035.06.015.133-.02.073-.004.133.034.133.038 0 .054.06.034.133-.02.077-.002.133.044.133.044 0 .063.027.041.061-.043.07.38 1.823.449 1.854.024.01.028.078.009.15-.02.07-.004.129.035.129.038 0 .053.06.034.133-.021.077-.002.133.044.133.044 0 .063.027.042.06-.045.072.372 1.827.441 1.855.028.011.035.078.016.15-.02.071-.002.13.039.13.04 0 .058.039.04.087-.02.048.03.354.108.681.202.837.198 1.127-.017 1.338a.78.78 0 0 1-.477.203c-.265.029-.332.009-.518-.157zM1.947 4.807c-.32-.095-.626-.315-1.06-.764C.657 3.805.48 3.61.495 3.61c.015 0-.016-.14-.068-.31a3.355 3.355 0 0 1-.095-.796c0-.711.188-1.152.713-1.665.364-.357.484-.43.915-.558C2.948-.013 3.882.22 4.537.92c.5.534.642.957.594 1.759-.048.808-.057.864-.135.864-.036 0-.045.02-.02.044.024.023-.194.275-.485.558-.434.423-.596.535-.895.622-.387.112-1.326.135-1.649.04zM9.769 11.19c-.063-.067-.1-.135-.083-.152.017-.016-.492-.505-1.13-1.086L7.395 8.896l.036-.93c.02-.513.043-1.274.05-1.693l.013-.76.214-.185c.33-.283.524-.327 1.645-.37l1.039-.04v.886h.951v-.885l1.039.04c1.124.043 1.314.086 1.65.374l.221.19.008 2.418c.004 1.33-.019 2.508-.05 2.618-.033.116-.177.29-.346.415l-.29.216-1.302.014-1.304.015 1.122.038c1.094.037 1.081.038-.544.047-1.535.008-1.674-.001-1.778-.114zm1.642-1.895v-.898h.408c.224 0 .408-.016.408-.036 0-.073-1.32-1.561-1.37-1.544-.062.022-1.349 1.496-1.349 1.545 0 .02.183.035.408.035h.408v1.796H11.41z" fill="#4d4d4d"/><path d="M20.451 4.85c0-.032-.045-.04-.101-.02-.057.022-.102.015-.102-.013 0-.029-.1-.1-.221-.156-.353-.167-.823-.611-1.015-.961-.55-1-.348-2.16.51-2.928.21-.188.53-.396.707-.461.179-.066.34-.136.358-.156.055-.06 1.088-.042 1.088.018 0 .03.054.044.119.032.065-.013.15 0 .187.03.037.028.256.169.485.31.947.587 1.323 1.65.975 2.755-.174.55-.64 1.072-1.204 1.348a4.623 4.623 0 0 0-.426.225c-.06.058-1.36.036-1.36-.024zM18.585 23.619c-.278-.239-.294-.36-.135-1.03.058-.244.09-.486.07-.536-.02-.05-.002-.09.038-.09s.058-.06.039-.133c-.02-.073-.005-.133.034-.133.038 0 .053-.058.034-.13-.019-.071-.013-.139.012-.15.044-.018.431-1.56.448-1.782a.486.486 0 0 1 .062-.188c.03-.047.037-.104.014-.126-.022-.021-.005-.08.037-.13.043-.05.058-.11.034-.133-.023-.023-.016-.075.016-.115.054-.066.426-1.538.447-1.77a.491.491 0 0 1 .061-.182c.028-.045.034-.11.013-.144a.073.073 0 0 1 .025-.1c.036-.022.064-.092.063-.155a1.171 1.171 0 0 1 .038-.265l.082-.299c.112-.41.1-.487-.12-.815-.123-.182-.244-.341-.27-.352-.024-.01-.03-.078-.01-.15.02-.07.008-.13-.024-.13-.033 0-.05-.156-.04-.348.01-.192-.006-1.342-.035-2.556l-.052-2.206-.952.868c-1.898 1.732-2.586 2.33-2.743 2.39-.228.085-.611-.035-.82-.258-.138-.147-.17-.242-.153-.447.02-.24.124-.358 1.427-1.61.773-.744 1.423-1.352 1.446-1.352.022 0 .236-.201.476-.447a7.65 7.65 0 0 1 .618-.582c.1-.074.483-.4.85-.726.367-.326.766-.633.887-.682.352-.145 1.034-.128 1.359.034.346.173.677.56.778.907.052.182.078 1.333.08 3.624.003 3.737.022 3.569-.47 4.156-.135.162-.225.327-.199.368.026.041.057.177.07.303.024.246.072.608.124.925.041.254.09.593.136.931.02.147.05.356.068.466.018.11.047.304.066.432l.068.466c.097.661.11.78.11.975 0 .116.028.229.062.25.035.02.048.098.028.17a.442.442 0 0 0 .017.25.736.736 0 0 1 .037.293c-.008.097.015.194.052.216.036.022.05.1.03.172a.443.443 0 0 0 .016.25.894.894 0 0 1 .037.333c-.008.119.011.216.043.216s.047.116.033.259c-.014.142.01.321.051.399.051.092.053.14.007.14a.073.073 0 0 0-.07.074c0 .096-.384.526-.43.48-.02-.018-.098 0-.176.041-.095.05-.142.051-.142.006 0-.038-.063-.07-.14-.07-.225 0-.45-.28-.536-.67a62.484 62.484 0 0 1-.341-2.046c-.145-.928-.296-1.72-.337-1.76-.04-.04-.076-.043-.079-.008-.006.072.005.03-.26 1.023-.111.419-.188.783-.171.81.017.027-.002.07-.043.094-.04.024-.058.085-.038.135.02.05.004.11-.034.133-.038.023-.054.083-.034.133.02.05.005.11-.031.132a.126.126 0 0 0-.054.118.396.396 0 0 1-.03.178c-.023.055-.09.29-.15.523-.17.664-.37 1.13-.529 1.239-.25.171-.623.127-.895-.106zM4.64 23.813c-.02-.031-.064-.04-.099-.018-.034.02-.063.003-.063-.04 0-.042-.038-.063-.085-.045-.047.017-.125-.01-.173-.06-.071-.074-.07-.092 0-.093.049-.001.016-.061-.072-.133-.089-.072-.122-.131-.075-.131.06 0 .052-.037-.026-.122-.062-.067-.093-.14-.07-.164.025-.024.01-.084-.032-.134-.043-.05-.06-.109-.037-.13.022-.022.015-.079-.015-.126a.494.494 0 0 1-.063-.187c-.014-.167-.182-.826-.238-.933a1.348 1.348 0 0 1-.089-.299 6.59 6.59 0 0 0-.075-.349l-.071-.282a10.062 10.062 0 0 1-.142-.599c-.065-.328-.25-.896-.272-.831-.012.036-.1.59-.194 1.23a33.91 33.91 0 0 1-.213 1.33 2.39 2.39 0 0 0-.051.382c-.006.12-.03.216-.055.216s-.046.068-.048.15c-.005.169-.051.482-.1.682a21.12 21.12 0 0 0-.058.232c-.028.123-.207.266-.277.223-.029-.017-.054.023-.057.09-.003.07-.02.085-.04.036a.076.076 0 0 0-.112-.036c-.123.074-.345.076-.438.003-.046-.036-.085-.048-.085-.025 0 .022-.088-.05-.196-.16-.235-.24-.236-.326-.04-2.026a18.878 18.878 0 0 1 .128-.93L1.184 20a143.558 143.558 0 0 1 .132-.897 609.705 609.705 0 0 1 .272-1.862c.057-.391.1-.685.148-.998.065-.43.042-.667-.077-.796-.057-.062-.104-.145-.104-.184 0-.04-.024-.083-.053-.095-.03-.012-.129-.142-.22-.288l-.169-.266-.008-3.358c-.005-1.847.014-3.224.043-3.06.045.264.05.239.05-.207-.002-.487.009-.522.27-.88.15-.204.29-.354.312-.333.022.022.133-.026.247-.106.114-.08.208-.124.208-.1 0 .026.076-.003.17-.063.093-.06.17-.078.17-.04 0 .037.076.067.17.067.093 0 .17-.03.17-.068 0-.037.076-.019.17.041.093.06.17.093.17.072 0-.02.069 0 .153.042.16.082.198.113.764.611.187.165.357.3.378.3.022 0 .29.24.595.532.306.292.557.52.557.505 0-.014.1.068.224.183.123.115.573.524 1 .908.426.384.975.907 1.22 1.163.244.255.55.57.677.698.174.175.236.297.243.484.006.14-.03.284-.08.324-.05.04-.09.111-.09.158 0 .046-.076.103-.17.126-.093.023-.17.068-.17.1 0 .033-.06.044-.136.025-.083-.021-.136-.002-.136.05 0 .056-.045.044-.135-.036-.075-.066-.136-.098-.136-.072 0 .027-.096-.044-.213-.159-.116-.114-.227-.192-.247-.173-.019.018-.117-.078-.218-.214-.101-.137-.357-.365-.569-.508-.212-.143-.386-.292-.388-.331-.002-.04-.19-.222-.419-.405a21.715 21.715 0 0 1-.887-.765c-.7-.641-.66-.652-.67.18-.016 1.696-.119 3.935-.194 4.242a5.668 5.668 0 0 0-.093.433c-.006.055-.028.114-.048.133-.097.085-.33.515-.298.548.02.02.05.127.064.238.03.238.15.707.239.943.034.091.077.24.095.332.03.155.057.268.141.599.081.316.111.442.143.598.04.194.15.64.205.831.02.073.063.238.094.366.03.128.074.3.096.382.042.159.084.32.145.566a40.615 40.615 0 0 0 .298 1.358c.326 1.41.294 1.77-.162 1.854-.133.024-.241.066-.241.092 0 .067-.202.06-.246-.008zM2.405 4.922a1.102 1.102 0 0 0-.338-.095 24.104 24.104 0 0 1-.288-.032c-.045-.006-.098-.05-.117-.1-.019-.048-.081-.088-.139-.088-.057 0-.104-.028-.104-.063 0-.034-.082-.102-.183-.15-.233-.11-.746-.754-.81-1.017-.026-.11-.05-.499-.054-.865-.005-.576.016-.71.16-.997.09-.183.221-.372.29-.42.068-.049.11-.11.093-.137C.866.881.98.743 1.107.725c.064-.01.187-.097.272-.194.086-.098.174-.16.196-.139.021.021.08.014.129-.017.094-.058.13-.069.288-.082A.42.42 0 0 0 2.196.18c.059-.057.107-.08.107-.05s.199.055.442.055c.248 0 .442-.03.442-.067.001-.043.019-.043.052 0 .027.038.233.14.457.229.225.088.43.192.457.232.026.039.072.072.102.074.145.006.359.183.359.296 0 .07.042.15.093.18.103.06.306.42.36.642.02.078.042.457.05.841.012.593-.007.733-.122.93-.075.129-.176.258-.224.287-.05.03-.089.086-.089.125 0 .079-.339.41-.341.334-.001-.026-.104.064-.23.2-.125.136-.244.23-.265.21-.021-.021-.079-.013-.128.017a.592.592 0 0 1-.185.068.254.254 0 0 0-.152.102c-.046.072-.057.07-.057-.003-.001-.066-.053-.078-.188-.045-.103.025-.25.053-.327.062a.647.647 0 0 0-.205.056c-.036.022-.126.007-.199-.033zM10.142 11.279c-.258-.027-.365-.107-1.16-.874-.483-.464-1.04-.994-1.24-1.176l-.36-.333.041-1.623c.041-1.594.045-1.628.215-1.878.095-.14.195-.25.222-.245.109.023.696-.163.696-.22 0-.035.405-.053.935-.042l.935.018.02.45.02.448h.877v-.931h.918c.537 0 .917.026.917.063 0 .06.45.18.561.15.028-.008.051.018.051.057 0 .039.027.054.06.034.034-.02.14.065.237.189l.175.225.047 2.201c.037 1.728.029 2.201-.037 2.201-.057 0-.078.096-.065.3.017.274-.006.324-.273.59-.29.29-.296.291-.88.333-.853.06-2.582.097-2.912.063zm1.27-1.984v-.898h.373c.206 0 .374-.028.374-.062 0-.068-.301-.423-1.017-1.201l-.276-.3-.22.242c-.121.133-.307.343-.414.466-.106.123-.314.358-.462.523l-.268.3.41.019.412.02V10.193H11.41zm-2.398-4.33c-.023-.021-.081-.024-.13-.004-.055.02-.039.037.04.04.072.002.112-.013.09-.035zm3.874 0c-.022-.021-.081-.024-.13-.004-.054.02-.038.037.04.04.073.002.113-.013.09-.035z" fill="#333"/></svg>