<?xml version="1.0" encoding="UTF-8" standalone="no"?>
<svg
   xmlns:dc="http://purl.org/dc/elements/1.1/"
   xmlns:cc="http://creativecommons.org/ns#"
   xmlns:rdf="http://www.w3.org/1999/02/22-rdf-syntax-ns#"
   xmlns:svg="http://www.w3.org/2000/svg"
   xmlns="http://www.w3.org/2000/svg"
   xmlns:sodipodi="http://sodipodi.sourceforge.net/DTD/sodipodi-0.dtd"
   xmlns:inkscape="http://www.inkscape.org/namespaces/inkscape"
   width="24"
   height="24"
   version="1.1"
   id="svg10"
   sodipodi:docname="courier.svg"
   inkscape:version="0.92.2 (unknown)">
  <metadata
     id="metadata16">
    <rdf:RDF>
      <cc:Work
         rdf:about="">
        <dc:format>image/svg+xml</dc:format>
        <dc:type
           rdf:resource="http://purl.org/dc/dcmitype/StillImage" />
      </cc:Work>
    </rdf:RDF>
  </metadata>
  <defs
     id="defs14" />
  <sodipodi:namedview
     pagecolor="#ffffff"
     bordercolor="#666666"
     borderopacity="1"
     objecttolerance="10"
     gridtolerance="10"
     guidetolerance="10"
     inkscape:pageopacity="0"
     inkscape:pageshadow="2"
     inkscape:window-width="640"
     inkscape:window-height="480"
     id="namedview12"
     showgrid="false"
     inkscape:zoom="9.8333333"
     inkscape:cx="12"
     inkscape:cy="12"
     inkscape:window-x="69"
     inkscape:window-y="34"
     inkscape:window-maximized="0"
     inkscape:current-layer="svg10" />
  <path
     d="M13.172 4.895H11.31v.903h-.87v-.903H8.565c-.677 0-1.226.537-1.226 1.2V8.91l2.129 1.948c.139.128.247.277.332.438h3.373c.677 0 1.226-.537 1.226-1.2V6.095c0-.663-.55-1.2-1.227-1.2zm-1.761 3.479v1.763h-1.089V8.374h-.77l1.32-1.527 1.313 1.533s-.007-.006-.774-.006zM.222 2.529C.222 1.166 1.352.06 2.745.06 4.14.06 5.27 1.166 5.27 2.53c0 1.363-1.13 2.469-2.524 2.469-1.393 0-2.523-1.106-2.523-2.469zm8.722 10.056a.83.83 0 0 1-.601.255.832.832 0 0 1-.563-.217l-3.388-3.1v4.752c0 .507-.244.954-.619 1.25l1.838 7.388a.805.805 0 0 1-.606.973.82.82 0 0 1-.995-.592L2.955 19.05l-.594 4.063a.821.821 0 0 1-.932.683.808.808 0 0 1-.698-.911l1.067-7.296c-.422-.292-.7-.77-.7-1.315V8.02c0-.89.738-1.61 1.647-1.61.21 0 .41.041.596.112a.824.824 0 0 1 .4.199l5.164 4.725c.332.304.35.814.04 1.14zM21.14 4.998c-1.393 0-2.523-1.106-2.523-2.469 0-1.363 1.13-2.469 2.523-2.469 1.394 0 2.524 1.106 2.524 2.469 0 1.363-1.13 2.469-2.524 2.469zm-6.16 6.448l5.165-4.725a.824.824 0 0 1 .4-.2c.185-.07.385-.112.595-.112.91 0 1.647.722 1.647 1.611v6.255c0 .544-.278 1.023-.7 1.315l1.068 7.296a.808.808 0 0 1-.699.911.821.821 0 0 1-.931-.683l-.595-4.063-1.055 4.243a.82.82 0 0 1-.994.592.805.805 0 0 1-.606-.973l1.838-7.388a1.589 1.589 0 0 1-.62-1.25V9.523l-3.388 3.1a.831.831 0 0 1-.562.217.83.83 0 0 1-.601-.255.793.793 0 0 1 .038-1.139z"
     id="path2" />
</svg>
