<svg xmlns="http://www.w3.org/2000/svg" width="24" height="24"><path d="M11.247 23.368c-.203-.075-2.494-1.046-5.093-2.158-3.375-1.444-4.807-2.084-5.014-2.24-.334-.25-.7-.767-.851-1.2-.098-.28-.104-.606-.104-5.732V6.603l.21-.426c.217-.438.653-.942.947-1.094C1.43 5.037 3.706 4.019 6.4 2.82 10.26 1.102 11.381.626 11.688.574c.67-.116.925-.04 3.028.89 1.033.457 1.937.862 2.01.899.12.061-.395.315-5.643 2.78L5.308 7.853l-.001 1.787-.002 1.788.977.433c.536.24.995.434 1.018.434.023 0 .043-.783.043-1.74l.001-1.74 5.814-2.73 5.813-2.731 1.867.83c1.027.455 1.973.9 2.102.99.503.342.923 1.005 1.036 1.634.035.198.04 2.203.014 5.573l-.04 5.263-.187.38c-.23.466-.647.932-1.01 1.128-.151.081-2.464 1.084-5.14 2.227l-4.867 2.08-.566.022c-.492.019-.614.004-.933-.114zm4.599-3.638l4.454-1.87c1.366-.573 2.39-1.034 2.447-1.102.13-.155.139-.66.011-.708-.113-.044-9.175 3.816-9.217 3.925a1.565 1.565 0 0 0-.031.36c0 .242.015.278.115.278.063 0 1.062-.397 2.22-.883zm-.178-1.383c.231-.097.49-.253.581-.35l.165-.178-.036-1.94-.035-1.94.282-.122c.317-.136.563-.39.563-.582 0-.125-1.124-1.505-1.358-1.667-.095-.066-.136-.062-.29.029-.156.09-.27.3-.823 1.52-.379.835-.636 1.472-.627 1.555.019.189.242.215.539.063l.222-.113.037.685c.02.376.037 1.213.037 1.86 0 .645.015 1.214.034 1.263.05.133.245.11.71-.083zm4.78-2.067c.183-.08.417-.186.52-.234.346-.163.35-.196.35-2.407v-2.001l.346-.166c.19-.09.394-.226.453-.3.208-.265.152-.38-.603-1.239-.767-.871-.852-.923-1.123-.679-.201.182-1.518 2.998-1.495 3.198.023.202.19.227.492.073.126-.064.255-.116.287-.116.04 0 .059.628.059 1.92 0 1.055.015 1.959.034 2.008.05.131.3.11.68-.057z" fill="#333"/></svg>