<?xml version="1.0" encoding="UTF-8" standalone="no"?>
<svg
   xmlns:dc="http://purl.org/dc/elements/1.1/"
   xmlns:cc="http://creativecommons.org/ns#"
   xmlns:rdf="http://www.w3.org/1999/02/22-rdf-syntax-ns#"
   xmlns:svg="http://www.w3.org/2000/svg"
   xmlns="http://www.w3.org/2000/svg"
   xmlns:sodipodi="http://sodipodi.sourceforge.net/DTD/sodipodi-0.dtd"
   xmlns:inkscape="http://www.inkscape.org/namespaces/inkscape"
   width="24"
   height="24"
   version="1.1"
   id="svg4"
   sodipodi:docname="package.svg"
   inkscape:version="0.92.2 (unknown)">
  <metadata
     id="metadata10">
    <rdf:RDF>
      <cc:Work
         rdf:about="">
        <dc:format>image/svg+xml</dc:format>
        <dc:type
           rdf:resource="http://purl.org/dc/dcmitype/StillImage" />
      </cc:Work>
    </rdf:RDF>
  </metadata>
  <defs
     id="defs8" />
  <sodipodi:namedview
     pagecolor="#ffffff"
     bordercolor="#666666"
     borderopacity="1"
     objecttolerance="10"
     gridtolerance="10"
     guidetolerance="10"
     inkscape:pageopacity="0"
     inkscape:pageshadow="2"
     inkscape:window-width="1541"
     inkscape:window-height="876"
     id="namedview6"
     showgrid="false"
     inkscape:zoom="13.906433"
     inkscape:cx="12.899197"
     inkscape:cy="4.403819"
     inkscape:window-x="59"
     inkscape:window-y="24"
     inkscape:window-maximized="1"
     inkscape:current-layer="svg4" />
  <path
     d="M 18.81846,3.3956568 7.2820996,8.8191419 V 12.301848 L 5.2695962,11.406981 V 7.9242735 L 16.805957,2.5008275 12.931142,0.77796996 c -0.518846,-0.23067688 -1.367812,-0.23067688 -1.886659,0 L 1.5029855,5.0204698 C 0.74284022,5.3584582 0.12253486,6.3155893 0.12447384,7.1474977 l 0.0234909,9.9455873 c 0.002003,0.840747 0.63612331,1.798925 1.40917856,2.129432 l 9.5164917,4.068118 c 0.501865,0.21455 1.32315,0.21455 1.825055,1.16e-4 l 9.519748,-4.068274 c 0.773018,-0.33035 1.407202,-1.288451 1.409179,-2.129157 l 0.02353,-9.9458223 C 23.853047,6.3155893 23.23282,5.3584582 22.472635,5.0204698 Z m 2.877055,7.9609242 -0.558393,0.259094 -0.01132,3.929363 c -4.94e-4,0.171708 -0.152168,0.376098 -0.338337,0.456428 l -0.835978,0.360901 c -0.183262,0.07912 -0.331515,0.0058 -0.331631,-0.163722 l -0.0029,-3.877724 -0.540868,0.250915 c -0.254402,0.118013 -0.413627,-0.06703 -0.287317,-0.333452 l 1.292871,-2.7276394 c 0.130496,-0.2753394 0.457707,-0.4341762 0.58867,-0.2848379 l 1.326718,1.5124613 c 0.132435,0.150967 -0.03567,0.494887 -0.301584,0.618213 z m -5.458766,6.310366 c 0.0014,0.164498 -0.137631,0.358226 -0.310191,0.43274 l -0.775227,0.334655 c -0.170002,0.07339 -0.309068,10e-4 -0.311006,-0.16128 l -0.0454,-3.715086 -0.501595,0.232693 c -0.235909,0.109445 -0.386449,-0.07009 -0.271616,-0.323489 l 1.175091,-2.592916 c 0.118517,-0.261574 0.421536,-0.408665 0.545171,-0.263824 l 1.252281,1.466868 c 0.125069,0.146429 -0.0276,0.47306 -0.273788,0.587234 l -0.517102,0.239904 z m 6.381587,-1.078713 c -6.46e-4,0.0863 -0.07816,0.188613 -0.173221,0.228583 l -8.854666,3.719894 c -0.08261,0.03474 -0.150579,-0.0017 -0.151781,-0.08126 l -0.0068,-0.432739 c -0.0012,-0.07979 0.06474,-0.173027 0.147517,-0.208267 l 8.870442,-3.778707 c 0.09519,-0.04055 0.172059,-0.0033 0.171476,0.08319 z"
     id="path2-3"
     inkscape:connector-curvature="0"
     style="stroke-width:0.03876908" />
</svg>
