<?xml version="1.0" encoding="UTF-8" standalone="no"?>
<svg
   xmlns:dc="http://purl.org/dc/elements/1.1/"
   xmlns:cc="http://creativecommons.org/ns#"
   xmlns:rdf="http://www.w3.org/1999/02/22-rdf-syntax-ns#"
   xmlns:svg="http://www.w3.org/2000/svg"
   xmlns="http://www.w3.org/2000/svg"
   xmlns:sodipodi="http://sodipodi.sourceforge.net/DTD/sodipodi-0.dtd"
   xmlns:inkscape="http://www.inkscape.org/namespaces/inkscape"
   width="24"
   height="24"
   viewBox="0 0 24 24"
   version="1.1"
   id="svg3945"
   sodipodi:docname="in-hands (1).svg"
   inkscape:version="0.92.2 (unknown)">
  <metadata
     id="metadata3951">
    <rdf:RDF>
      <cc:Work
         rdf:about="">
        <dc:format>image/svg+xml</dc:format>
        <dc:type
           rdf:resource="http://purl.org/dc/dcmitype/StillImage" />
        <dc:title></dc:title>
      </cc:Work>
    </rdf:RDF>
  </metadata>
  <defs
     id="defs3949" />
  <sodipodi:namedview
     pagecolor="#ffffff"
     bordercolor="#666666"
     borderopacity="1"
     objecttolerance="10"
     gridtolerance="10"
     guidetolerance="10"
     inkscape:pageopacity="0"
     inkscape:pageshadow="2"
     inkscape:window-width="1541"
     inkscape:window-height="876"
     id="namedview3947"
     showgrid="false"
     inkscape:zoom="11.313709"
     inkscape:cx="3.5247766"
     inkscape:cy="6.0023955"
     inkscape:window-x="59"
     inkscape:window-y="24"
     inkscape:window-maximized="1"
     inkscape:current-layer="svg3945" />
  <path
     d="m 23.247181,20.774446 h -2.394324 c -0.304352,0 -0.551089,-0.246736 -0.551089,-0.551088 V 12.58434 c 0,-0.304352 0.246737,-0.551049 0.551089,-0.551049 h 2.394324 c 0.304352,0 0.551088,0.246697 0.551088,0.551049 v 7.639018 c 0,0.304391 -0.246736,0.551088 -0.551088,0.551088 z m -4.162392,-7.133402 c -0.427971,-0.217621 -1.502152,-0.685919 -2.819821,-0.685919 -1.716447,0 -3.528209,1.271459 -3.528209,1.271459 -1.374124,0 -4.2476171,0 -4.7043558,0 -0.6039077,0 -1.8922682,0.317884 -1.8922682,1.843625 0,1.271425 1.1929672,1.843584 1.8922682,1.843584 0.6992611,0 5.4354018,0 5.4354018,0 0.504648,0.04847 0.921792,0.597024 0.921792,0.597024 0,0 -5.2757436,0 -6.3983363,0 -1.1226307,0 -2.2267024,-0.787732 -2.4171393,-1.61181 -1.3032077,-0.890009 -3.0119593,-2.707533 -3.8000785,-3.53463 -0.92836639,-0.9743 -2.21854318,0.08205 -1.35618239,1.313226 0.42480021,0.606497 2.07640139,2.381369 3.99426639,4.342236 1.719888,1.758438 4.7920927,2.240581 7.1620571,2.240581 2.52765,0 5.07042,-1.375669 7.465209,-1.766327 0.154051,-0.02512 0.245268,-0.1904 0.245268,-0.34654 v -5.179462 c 0,-0.138271 -0.0766,-0.264407 -0.199872,-0.327047 z M 5.3349251,15.661415 c 0.3200504,-0.07815 0.6264125,-0.452018 0.4885633,-0.683947 -0.299093,-0.50322 -2.512687,-2.380441 -3.2702976,-2.684291 -0.6195678,-0.248519 -0.7602399,0.290391 -0.7602399,0.290391 0,0 3.2752848,2.846078 3.5419742,3.077847 z m 0.6311297,-1.318714 c 0.3200504,-0.07815 0.6264125,-0.452018 0.4885624,-0.683948 -0.299092,-0.503214 -1.8250635,-1.692822 -2.5826739,-1.996666 -0.6196069,-0.248519 -0.7602404,0.290391 -0.7602404,0.290391 0,0 2.5876237,2.158453 2.8543519,2.390223 z M 16.377026,4.4487059 v 5.6876011 c 0,0.942017 -0.763682,1.705619 -1.705659,1.705619 H 8.2642915 c -0.9420158,0 -1.7056587,-0.763641 -1.7056587,-1.705619 V 4.4487059 c 0,-0.9420167 0.7636429,-1.705696 1.7056587,-1.705696 h 2.6064165 v 1.2838747 h 1.210174 V 2.7430099 h 2.590524 c 0.941977,0 1.70562,0.7636793 1.70562,1.705696 z M 13.084263,7.6963089 11.257072,5.5181341 9.4231924,7.6883429 c 0.038515,0 0.038274,0 1.0703146,0 v 2.5064691 h 1.513946 V 7.6883429 c 1.06637,3.8e-5 1.07681,0.008 1.07681,0.008 z"
     id="path3857"
     inkscape:connector-curvature="0"
     style="stroke-width:0.03866742" />
  <path
     style="fill:#333333;stroke-width:0.0395912"
     d=""
     id="path3873"
     inkscape:connector-curvature="0" />
</svg>
