<?xml version="1.0" encoding="UTF-8" standalone="no"?>
<svg
   xmlns:dc="http://purl.org/dc/elements/1.1/"
   xmlns:cc="http://creativecommons.org/ns#"
   xmlns:rdf="http://www.w3.org/1999/02/22-rdf-syntax-ns#"
   xmlns:svg="http://www.w3.org/2000/svg"
   xmlns="http://www.w3.org/2000/svg"
   xmlns:sodipodi="http://sodipodi.sourceforge.net/DTD/sodipodi-0.dtd"
   xmlns:inkscape="http://www.inkscape.org/namespaces/inkscape"
   width="24"
   height="24"
   version="1.1"
   id="svg4"
   sodipodi:docname="ruble-sign.svg"
   inkscape:version="0.92.2 (unknown)">
  <metadata
     id="metadata10">
    <rdf:RDF>
      <cc:Work
         rdf:about="">
        <dc:format>image/svg+xml</dc:format>
        <dc:type
           rdf:resource="http://purl.org/dc/dcmitype/StillImage" />
        <dc:title></dc:title>
      </cc:Work>
    </rdf:RDF>
  </metadata>
  <defs
     id="defs8" />
  <sodipodi:namedview
     pagecolor="#ffffff"
     bordercolor="#666666"
     borderopacity="1"
     objecttolerance="10"
     gridtolerance="10"
     guidetolerance="10"
     inkscape:pageopacity="0"
     inkscape:pageshadow="2"
     inkscape:window-width="1541"
     inkscape:window-height="876"
     id="namedview6"
     showgrid="false"
     inkscape:zoom="9.8333333"
     inkscape:cx="10.142399"
     inkscape:cy="-6.7602759"
     inkscape:window-x="59"
     inkscape:window-y="24"
     inkscape:window-maximized="1"
     inkscape:current-layer="svg4" />
  <path
     id="path23"
     d="m 1.8432429,20.185756 h 3.7910629 v 3.249852 c 0,0.158125 0.050553,0.287558 0.1523692,0.388743 0.1015104,0.101826 0.231279,0.152744 0.3893452,0.152744 h 2.8261764 c 0.1466821,0 0.2735972,-0.05095 0.3808046,-0.152744 0.1071975,-0.101185 0.1606433,-0.230667 0.1606433,-0.388743 v -3.249852 h 8.5466365 c 0.157741,0 0.287558,-0.05026 0.389296,-0.152103 0.101836,-0.101737 0.152379,-0.231269 0.152379,-0.389384 v -2.166374 c 0,-0.157188 -0.05055,-0.287559 -0.152379,-0.388733 -0.101461,-0.101837 -0.231555,-0.152755 -0.389296,-0.152755 H 9.5433581 v -1.99713 h 5.7541889 c 2.25643,0 4.098052,-0.687558 5.525714,-2.064627 1.427108,-1.375628 2.141008,-3.1526075 2.141008,-5.3310273 0,-2.1769682 -0.7139,-3.953987 -2.141008,-5.3310169 C 19.395885,0.83692869 17.553928,0.14797933 15.297547,0.14797933 H 6.1757438 c -0.1581255,0 -0.2876078,0.050849 -0.3893452,0.15209275 C 5.6848882,0.4018589 5.6340195,0.53218039 5.6340195,0.68941729 V 11.334923 H 1.8432429 c -0.1580762,0 -0.2876078,0.05352 -0.3893452,0.160644 -0.101461,0.107207 -0.1523791,0.234122 -0.1523791,0.380755 v 2.521418 c 0,0.158125 0.050553,0.287657 0.1523791,0.389395 0.1017868,0.101836 0.2309926,0.152092 0.3893452,0.152092 h 3.7910629 v 1.997131 H 1.8432429 c -0.1580762,0 -0.2876078,0.05095 -0.3893452,0.152754 -0.101461,0.101175 -0.1523791,0.231269 -0.1523791,0.388733 v 2.166374 c 0,0.158116 0.050553,0.287657 0.1523791,0.389395 0.1017374,0.101875 0.2312197,0.152142 0.3893452,0.152142 z M 9.5433581,3.7531719 H 14.95907 c 1.19583,0 2.160341,0.3496435 2.893959,1.0491576 0.733242,0.6995536 1.100026,1.613759 1.100026,2.7415795 0,1.1283736 -0.366784,2.0428555 -1.100026,2.74158 -0.733618,0.700126 -1.698179,1.04976 -2.893959,1.04976 H 9.5433581 Z"
     inkscape:connector-curvature="0"
     style="stroke-width:0.04671212" />
</svg>
