<?xml version="1.0" encoding="UTF-8" standalone="no"?>
<svg
   xmlns:dc="http://purl.org/dc/elements/1.1/"
   xmlns:cc="http://creativecommons.org/ns#"
   xmlns:rdf="http://www.w3.org/1999/02/22-rdf-syntax-ns#"
   xmlns:svg="http://www.w3.org/2000/svg"
   xmlns="http://www.w3.org/2000/svg"
   xmlns:sodipodi="http://sodipodi.sourceforge.net/DTD/sodipodi-0.dtd"
   xmlns:inkscape="http://www.inkscape.org/namespaces/inkscape"
   width="24"
   height="23.999969"
   viewBox="0 0 24 23.999969"
   version="1.1"
   id="svg3773"
   sodipodi:docname="sdek_24.svg"
   inkscape:version="0.92.2 (unknown)">
  <metadata
     id="metadata3779">
    <rdf:RDF>
      <cc:Work
         rdf:about="">
        <dc:format>image/svg+xml</dc:format>
        <dc:type
           rdf:resource="http://purl.org/dc/dcmitype/StillImage" />
        <dc:title></dc:title>
      </cc:Work>
    </rdf:RDF>
  </metadata>
  <defs
     id="defs3777" />
  <sodipodi:namedview
     pagecolor="#ffffff"
     bordercolor="#666666"
     borderopacity="1"
     objecttolerance="10"
     gridtolerance="10"
     guidetolerance="10"
     inkscape:pageopacity="0"
     inkscape:pageshadow="2"
     inkscape:window-width="1541"
     inkscape:window-height="876"
     id="namedview3775"
     showgrid="false"
     inkscape:zoom="26.573638"
     inkscape:cx="7.9558749"
     inkscape:cy="10.373901"
     inkscape:window-x="59"
     inkscape:window-y="24"
     inkscape:window-maximized="1"
     inkscape:current-layer="svg3773" />
  <path
     d="M 9.5514183,0.21300952 C 3.5471312,1.3831995 0.43245277,7.2727895 3.162334,12.30722 6.5746855,18.58258 16.877082,18.60829 20.362038,12.34582 23.977678,5.8582895 17.566814,-1.3365105 9.5514183,0.21303952 Z M 12.085272,1.2160295 c 0.602606,0.0257 0.704251,0.045 1.916724,0.19933 0.493701,0.0836 0.638908,0.0836 1.038226,0.22504 0.559045,0.21218 0.559045,0.21218 0.878499,0.35363 0.326713,0.12216 0.406577,0.19288 0.711512,0.34077 0.355755,0.25075 0.392056,0.2829 0.47918,0.63653 -0.05808,0.41794 -0.137945,0.41794 -0.406577,0.49509 -0.319455,0.0579 -0.559045,0.0579 -1.118089,0.0707 -0.798637,0 -1.197954,0 -1.597272,0 -0.399317,0 -0.559045,0 -0.878499,0 -0.188768,-0.006 -0.849458,-0.0643 -1.452064,-0.0964 -0.595347,-0.0322 -1.822341,-0.0965 -2.7226211,-0.14146 -1.5754906,-0.045 -1.7642589,-0.0707 -2.1345354,-0.11573 -0.4719209,-0.0579 -0.6461687,-0.0965 -0.8058957,-0.28291 -0.021781,-0.10288 0.1669873,-0.21218 0.4065781,-0.35363 0.5590448,-0.28291 0.6389083,-0.28291 0.8784989,-0.42435 0.079864,0 0.863979,-0.3858 1.4012429,-0.48223 0.2395906,-0.045 0.7332925,-0.14145 1.0890484,-0.21861 0.3630159,-0.0772 0.7986349,-0.14788 0.9656229,-0.15432 z m -6.7230603,2.49472 c 1.6408329,0.62368 2.7298819,0.72012 8.6833463,0.77156 3.107417,0.0321 5.677571,0.0772 5.713872,0.10288 0.137947,0.12216 -0.152466,0.31505 -0.588085,0.3922 C 13.929393,5.9289795 8.055792,9.3045595 5.5582404,12.80874 5.2170053,13.28453 4.8902908,13.6253 4.8249479,13.56743 4.5853573,13.34239 5.7107071,9.2145495 6.3859172,7.8578895 l 0.3557557,-0.72013 -0.6461687,-0.82299 c -0.7260321,-0.91944 -1.5537088,-2.32112 -1.5537088,-2.61688 0,-0.25075 0.1234254,-0.25075 0.8204163,0.0128 z m -0.3847969,3.20197 c -0.050822,0.63011 -0.00726,0.85515 -0.036302,1.17663 -0.043562,0.27004 -0.043562,0.27004 -0.1234257,0.62368 -0.058083,0.19932 0.021781,0.19932 -0.319454,0.84872 -0.1597269,0.14145 -0.3194539,0.21217 -0.638908,0.21217 -0.3993178,0.0707 -0.5300035,-2.24395 -0.1960288,-3.15053 0.3702765,-1.02232 1.3141185,-0.81657 1.3141185,0.28933 z m 15.6096912,-0.72013 c 0,0.10288 -0.217809,0.23148 -0.508222,0.29578 C 13.943913,7.8193095 9.0286752,10.62907 6.5529046,14.21683 5.9430375,15.14271 5.7760501,14.37114 6.0156407,13.66387 6.9740033,12.24935 7.2934574,11.99216 7.8670235,11.45207 9.631282,9.7867895 11.489924,8.6230095 14.198025,7.4656795 c 2.679057,-1.2795 3.078376,-1.35024 4.196465,-1.44025 1.444804,-0.0643 2.192616,-0.0386 2.192616,0.16716 z m -0.769593,1.58813 c 0.566305,-0.0128 0.479181,0.0643 0.479181,0.55939 0,0.35364 0,0.42436 -0.07986,0.84872 -0.06534,0.6301 -0.22507,1.1959105 -0.399318,1.6974305 -0.159727,0.42435 -0.159727,0.42435 -0.479181,0.91944 -0.319454,0.49509 -0.493702,0.81014 -0.878499,1.20235 -0.268632,0.28291 -0.479181,0.49509 -0.638907,0.63654 -0.239591,0.21218 -0.319455,0.2829 -0.631649,0.48866 -0.90754,0.70083 -1.052747,0.72011 -1.771517,1.14448 -1.038228,0.43722 -1.56097,0.59795 -3.194543,0.70726 -0.638908,0 -0.958362,0 -1.677134,-0.0707 C 9.2755261,15.76642 9.0286752,15.68282 8.4768907,15.4835 7.3805813,15.072 7.5185273,15.05915 7.4386638,14.98842 c -0.079863,-0.1286 0.1597271,-0.48223 0.3993178,-0.868 0.4937026,-0.68799 0.6534298,-0.82943 0.8784997,-1.0609 0.2178096,-0.21861 0.3775368,-0.36006 0.7478132,-0.66226 0.1887684,-0.1736 0.5082225,-0.38577 0.6824705,-0.5851 0.399318,-0.2829 0.559045,-0.42435 0.958362,-0.70726 0.319455,-0.18647 0.479182,-0.32791 0.747813,-0.48223 0.958364,-0.43078 1.197954,-0.6365405 1.836863,-0.8487205 1.168912,-0.50793 1.568229,-0.64939 2.207137,-0.91301 0.181507,-0.0321 0.726032,-0.21217 1.205213,-0.39864 0.638909,-0.25718 0.863979,-0.32792 1.35768,-0.46936 0.47192,-0.0964 0.479181,-0.0772 0.798635,-0.14788 z"
     id="path3759"
     inkscape:connector-curvature="0"
     style="fill:#008000;stroke-width:0.00683238" />
  <path
     d="M 3.561711,23.87138 C 2.1532086,23.6592 1.2311475,22.99695 0.57045822,21.73029 -0.67831719,19.3256 0.12757852,18.08467 2.9445836,18.08467 h 1.3213788 l 0.1742477,0.37935 c 0.341235,0.71369 0.1234254,0.90659 -1.0164452,0.90659 -1.6117916,0 -1.9820681,0.60438 -1.2342547,2.02534 0.5082225,0.95802 0.9946642,1.18949 2.5193317,1.18949 h 1.2052134 l 0.2831525,0.54653 c 0.4356193,0.85514 0.4210987,0.868 -0.8421974,0.85514 -0.6171272,-0.0128 -1.4230229,-0.0643 -1.7932994,-0.11573 z"
     id="path3761"
     inkscape:connector-curvature="0"
     style="stroke-width:0.00683238" />
  <path
     d="M 7.2862566,23.84565 C 7.1483097,23.44703 6.066522,20.70155 5.9721378,20.49579 c -0.087124,-0.19931 -0.01452,-0.22502 0.6243877,-0.22502 0.9293217,0 1.1035695,0.1543 1.5174078,1.35666 l 0.3267146,0.95801 h 0.6026067 c 1.0527464,0 1.1979534,-0.7587 0.3847971,-2.08321 C 8.8762672,19.60851 8.5277717,19.44776 6.988583,19.37061 L 5.6817249,19.30631 5.3695311,18.72763 5.0500768,18.14898 5.863233,18.11038 c 0.5590449,-0.0128 0.8131561,-0.0128 0.9583625,-0.0128 0.3194539,0 -0.3194541,0 0.7768549,-0.0128 2.8315256,0.006 5.7066136,4.69366 3.4631736,5.64524 z"
     id="path3763"
     inkscape:connector-curvature="0"
     style="stroke-width:0.00683238" />
  <path
     d="m 13.486572,23.86495 c -0.312193,-0.1093 -0.508222,-0.41151 -0.696992,-1.0609 -0.07986,-0.2829 -0.0726,-0.2829 1.923986,-0.25075 1.10357,0.0128 2.090972,0.0257 2.192617,0.0321 0.174248,0 0.435619,0.43722 0.67521,1.1252 l 0.101645,0.28937 -1.938506,-0.006 c -1.060008,-0.006 -2.076452,-0.0643 -2.25796,-0.12859 z"
     id="path3765"
     inkscape:connector-curvature="0"
     style="stroke-width:0.00683238" />
  <path
     d="m 17.71934,21.81389 c -0.450141,-1.16378 -0.972883,-2.48186 -1.161653,-2.9255 l -0.333974,-0.80372 h 0.856718 0.856719 l 0.326713,0.9066 c 0.246851,0.66867 0.450141,0.98372 0.784115,1.20876 l 0.45014,0.30863 0.188769,-0.66869 c 0.101643,-0.36006 0.304933,-0.90658 0.450139,-1.20877 l 0.268632,-0.54653 h 0.856719 0.863977 l -0.689729,1.60743 -0.696992,1.61384 1.655354,1.30521 c 0.90754,0.72013 1.626312,1.32452 1.604531,1.35024 -0.02904,0.0257 -0.515483,0.006 -1.089048,-0.0386 l -1.030967,-0.09 -0.842197,-0.78441 c -0.46466,-0.4308 -1.001924,-0.95804 -1.205212,-1.17664 -0.64617,-0.70084 -0.704252,-0.59152 -0.254112,0.48865 0.69699,1.65243 0.704251,1.57527 -0.23233,1.57527 h -0.798635 z"
     id="path3767"
     inkscape:connector-curvature="0"
     style="stroke-width:0.00683238" />
  <path
     d="m 12.54999,21.59527 c -0.137946,-0.0322 -0.312194,-0.23789 -0.384797,-0.46293 -0.0726,-0.22504 -0.181507,-0.51437 -0.23959,-0.63655 -0.159727,-0.34076 3.978656,-0.34076 4.312631,0 0.181507,0.18004 0.551784,0.95804 0.551784,1.14448 0,0.0643 -3.949615,0.0257 -4.240028,-0.045 z"
     id="path3769"
     inkscape:connector-curvature="0"
     style="stroke-width:0.00683238" />
  <path
     d="m 11.453682,19.20987 c -0.130686,-0.15432 -0.471921,-0.94516 -0.471921,-1.11233 0,-0.045 0.972883,-0.0579 2.156315,-0.0386 2.381386,0.045 2.228919,-0.0128 2.628237,0.95802 l 0.145207,0.35363 h -2.156316 c -1.553708,0 -2.199878,-0.045 -2.301522,-0.16074 z"
     id="path3771"
     inkscape:connector-curvature="0"
     style="stroke-width:0.00683238" />
</svg>
